<svg width="52" height="51" viewBox="0 0 52 51" fill="none" xmlns="http://www.w3.org/2000/svg">
<path d="M51.2643 25.1887C51.261 22.0813 48.8394 21.3939 48.1932 18.9228C47.9937 18.1629 47.9212 17.2183 47.9574 16.4336C48.0234 15.0324 48.5113 14.1637 47.964 12.7015C46.8892 9.83644 44.011 10.3738 42.0197 8.54569C40.3283 6.99448 40.3943 4.81849 38.7507 3.49642C36.6143 1.77706 34.7285 3.10902 32.3876 2.89967C29.3841 2.63097 27.9021 -0.369253 24.9398 0.03792C22.8941 0.31816 21.4088 2.66888 18.8059 2.89967C16.648 3.09254 14.8594 1.96004 12.8516 3.14199C10.7646 4.37011 10.7877 7.12305 9.00569 8.63141C6.96818 10.3557 4.30095 9.86282 3.16845 12.8103C2.43653 14.7143 3.30362 15.4412 3.32176 17.0386C3.36132 20.5301 0.733653 21.2142 0.135258 24.0364C-0.56864 27.3548 1.65515 27.8856 2.65577 30.3451C3.61683 32.709 3.00855 33.4788 2.89645 35.7076C2.80578 37.5176 3.53771 39.2979 5.24223 40.0661C6.68464 40.7173 7.63416 40.8607 8.92326 41.9866C11.1141 43.9021 10.7844 47.3491 14.1127 48.0859C15.8139 48.4618 17.1574 47.6475 18.8932 47.8041C21.7302 48.0612 23.0886 50.6576 25.6882 50.6081C28.2269 50.5603 29.5391 48.0464 32.2228 47.8041C34.0377 47.6409 35.2757 48.5178 37.1863 48.0134C40.4948 47.1414 40.1635 43.7142 42.4054 41.774C44.2253 40.198 46.7277 40.5244 47.8124 38.0138C48.8361 35.6466 47.4613 33.5431 48.2822 31.0144C49.0372 28.6884 51.2725 27.9301 51.2692 25.1903L51.2643 25.1887ZM20.6505 41.797C2.29476 36.0406 5.70545 9.51334 24.6893 8.44183C32.6514 7.9918 39.7299 13.0048 42.0444 20.5746C45.9793 33.4459 33.4328 45.8061 20.6505 41.7987V41.797Z" fill="#EAF9FF"/>
<path d="M32.1733 17.2001L22.7506 27.5607C22.5578 27.6547 21.9247 27.0431 21.7632 26.8898C20.0587 25.2627 17.2431 20.9685 14.6418 23.5203C12.9373 25.1935 14.0599 26.9442 15.3655 28.3223C16.92 29.9625 18.847 31.9489 20.5433 33.4144C21.0857 33.8826 21.445 34.3112 22.2 34.3887C23.743 34.5453 24.2985 34.0887 25.2992 33.0765C28.2054 30.1373 31.0738 26.7546 33.8168 23.6423C35.1851 22.0894 37.4352 20.4294 36.4296 18.1215C35.706 16.4566 33.4855 15.9258 32.17 17.2017L32.1733 17.2001Z" fill="#EAF9FF"/>
</svg>
