<svg width="58" height="50" viewBox="0 0 58 50" fill="none" xmlns="http://www.w3.org/2000/svg">
<path d="M50.3499 20.5414C49.9708 17.108 48.9797 13.7317 47.3014 10.7168C39.3663 -3.53634 18.8741 -3.57978 10.856 10.6319C9.13239 13.6863 8.08793 17.1889 7.774 20.6816C-2.84233 20.7803 -2.45733 37.4482 8.14519 37C9.4009 43.1305 14.5955 48.2679 20.8149 49.2354C22.3036 49.4664 26.3156 49.6302 27.7332 49.3716C29.5319 49.0438 29.8023 46.4909 28.3393 45.5906C27.2376 44.9134 23.3678 45.3932 21.8258 45.2471C16.1652 44.7061 12.1394 39.0751 11.7781 33.6889C11.478 29.2229 11.4464 21.3845 12.5955 17.1593C17.3242 -0.197634 40.7839 -0.199607 45.5126 17.1593C47.0645 22.8594 46.0023 29.2288 46.3379 35.0947C46.6953 37.7286 51.0409 36.923 52.7547 36.23C60.5753 33.069 58.7016 21.2621 50.3499 20.5414Z" fill="#D6E9F1"/>
<path d="M20.2878 26.5357C18.5997 26.82 17.9324 29.1617 19.2829 30.3246C21.1802 31.9574 24.0293 29.6908 22.6295 27.4953C22.1043 26.6719 21.2395 26.3758 20.2878 26.5357Z" fill="#D6E9F1"/>
<path d="M28.4382 26.5337C26.0709 27.0214 26.5132 31.3375 29.4116 30.8735C32.1955 30.4273 31.6565 25.8704 28.4382 26.5337Z" fill="#D6E9F1"/>
<path d="M36.7187 26.5337C34.3514 27.0214 34.7937 31.3375 37.6921 30.8735C40.476 30.4273 39.937 25.8704 36.7187 26.5337Z" fill="#D6E9F1"/>
</svg>
