<svg width="52" height="38" viewBox="0 0 52 38" fill="none" xmlns="http://www.w3.org/2000/svg">
<path d="M24.1588 20.3168C17.4002 20.8163 11.6323 25.9931 10.4001 32.6369C10.1104 34.1937 9.51264 36.9944 11.7705 37.1842H38.9132C40.9297 37.0061 40.6183 34.9264 40.4268 33.4444C39.4045 25.4969 32.128 19.7274 24.1588 20.3185V20.3168Z" fill="#D6E9F1"/>
<path d="M31.9898 13.6833C36.5872 7.81885 31.8583 -0.676475 24.4736 0.0428465C17.9248 0.680578 14.5813 8.48822 18.6907 13.6833C22.0692 17.9543 28.618 17.9843 31.9898 13.6833Z" fill="#D6E9F1"/>
<path d="M41.9737 21.7656C47.8665 20.0706 46.0732 11.1223 39.889 11.8666C32.8789 12.7108 34.9486 23.7871 41.9737 21.7656Z" fill="#D6E9F1"/>
<path d="M11.8822 21.7655C17.7616 20.0738 16.0232 11.1922 9.90235 11.8665C2.76408 12.6525 4.87709 23.7803 11.8822 21.7655Z" fill="#D6E9F1"/>
<path d="M50.4125 31.693C49.0787 27.6785 45.0459 24.3783 40.7066 24.3982C40.5484 24.3982 40.2637 24.3233 40.3353 24.5598C42.8629 28.0831 44.4381 32.7171 43.7121 37.073H49.6782C50.0595 37.073 50.7938 36.3653 50.917 35.989C51.2534 34.9599 50.7605 32.737 50.4125 31.693Z" fill="#D6E9F1"/>
<path d="M10.3469 24.5596C10.3719 24.3781 10.3536 24.3965 10.1887 24.3998C6.04595 24.4681 2.23621 27.4586 0.765932 31.2384C0.229771 32.6137 -0.8975 36.7049 1.32207 37.0728H6.97008C6.24743 32.717 7.80763 28.0797 10.3469 24.5596Z" fill="#D6E9F1"/>
</svg>
