<svg width="410" height="410" viewBox="0 0 410 410" fill="none" xmlns="http://www.w3.org/2000/svg">
<g clip-path="url(#clip0_276_448)">
<path d="M62.5051 161.808C57.1242 166.269 49.4436 168.501 39.4564 168.501H20.3208V201.346H1.24268V110H40.7044C49.8021 110 57.0532 112.356 62.4645 117.066C67.8724 121.775 70.578 129.067 70.578 138.943C70.578 149.727 67.8859 157.347 62.5085 161.811L62.5051 161.808ZM47.8473 128.902C45.4156 126.878 42.0099 125.866 37.6267 125.866H20.3208V152.762H37.6267C42.0099 152.762 45.4156 151.666 47.8473 149.478C50.279 147.289 51.4965 143.817 51.4965 139.067C51.4965 134.317 50.279 130.929 47.8473 128.905V128.902Z" fill="#EAF9FF"/>
<path d="M147.55 126.176H98.9158V145.572H143.559V161.435H98.9158V184.922H149.792V201.343H80.1488V110H147.55V126.176Z" fill="#EAF9FF"/>
<path d="M217.267 112.353C220.653 113.799 223.521 115.926 225.871 118.737C227.816 121.049 229.358 123.611 230.491 126.421C231.624 129.231 232.192 132.432 232.192 136.025C232.192 140.361 231.09 144.631 228.888 148.822C226.686 153.018 223.047 155.979 217.978 157.714C222.215 159.408 225.219 161.815 226.987 164.934C228.753 168.054 229.635 172.814 229.635 179.217V185.352C229.635 189.524 229.805 192.354 230.143 193.843C230.65 196.2 231.83 197.934 233.691 199.051V201.343H212.492C211.91 199.319 211.494 197.686 211.244 196.449C210.747 193.887 210.476 191.265 210.432 188.579L210.307 180.088C210.229 174.263 209.218 170.38 207.27 168.437C205.322 166.494 201.676 165.523 196.329 165.523H177.572V201.343H158.805V110H202.765C209.046 110.124 213.879 110.908 217.264 112.357L217.267 112.353ZM177.576 125.863V150.402H198.243C202.349 150.402 205.427 149.905 207.48 148.913C211.112 147.179 212.928 143.75 212.928 138.627C212.928 133.09 211.169 129.373 207.659 127.473C205.684 126.401 202.725 125.863 198.778 125.863H177.579H177.576Z" fill="#EAF9FF"/>
<path d="M244.205 110.125H309.735V126.176H263.283V147.186H303.996V163.049H263.283V201.347H244.205V110.125Z" fill="#EAF9FF"/>
<path d="M333.339 201.346H314.261V110H333.339V201.346Z" fill="#EAF9FF"/>
<path d="M344.909 110H364.112V184.922H410V201.343H344.909V110Z" fill="#EAF9FF"/>
<path d="M307.986 220.712H40.3106C18.0477 220.712 0 238.65 0 260.778C0 282.906 18.0477 300.844 40.3106 300.844H307.986C330.249 300.844 348.297 282.906 348.297 260.778C348.297 238.65 330.249 220.712 307.986 220.712Z" fill="#EA2D2D"/>
<path d="M46.7061 238.38H56.1555V275.246H78.734V283.327H46.7061V238.38Z" fill="#EEF9FF"/>
<path d="M110.579 238.38H121.27L137.27 283.327H127.023L124.04 274.09H107.387L104.323 283.327H94.4402L110.583 238.38H110.579ZM109.957 266.341H121.537L115.825 248.656L109.954 266.341H109.957Z" fill="#EEF9FF"/>
<path d="M162.399 269.451C162.694 271.505 163.265 273.037 164.121 274.056C165.687 275.905 168.372 276.829 172.17 276.829C174.446 276.829 176.296 276.584 177.713 276.096C180.409 275.162 181.755 273.424 181.755 270.883C181.755 269.4 181.095 268.251 179.776 267.437C178.457 266.644 176.364 265.945 173.499 265.333L168.605 264.264C163.793 263.208 160.488 262.059 158.689 260.818C155.642 258.744 154.117 255.504 154.117 251.093C154.117 247.07 155.608 243.725 158.588 241.062C161.567 238.4 165.947 237.069 171.727 237.069C176.55 237.069 180.666 238.323 184.071 240.834C187.477 243.345 189.263 246.989 189.429 251.766H180.348C180.179 249.063 178.965 247.14 176.699 246.004C175.187 245.251 173.313 244.874 171.071 244.874C168.575 244.874 166.583 245.362 165.095 246.337C163.607 247.312 162.863 248.673 162.863 250.424C162.863 252.031 163.597 253.228 165.064 254.021C166.008 254.549 168.01 255.171 171.074 255.88L179.009 257.739C182.485 258.553 185.093 259.642 186.828 261.003C189.523 263.118 190.873 266.177 190.873 270.18C190.873 274.184 189.276 277.697 186.08 280.409C182.888 283.122 178.376 284.48 172.545 284.48C166.715 284.48 161.912 283.142 158.5 280.47C155.087 277.797 153.383 274.123 153.383 269.447H162.403L162.399 269.451Z" fill="#EEF9FF"/>
<path d="M243.5 246.34H219.572V255.884H241.539V263.689H219.572V275.246H244.606V283.327H210.339V238.38H243.504V246.34H243.5Z" fill="#EEF9FF"/>
<path d="M293.511 239.54C295.178 240.253 296.589 241.298 297.745 242.68C298.702 243.819 299.46 245.076 300.018 246.461C300.576 247.843 300.857 249.419 300.857 251.188C300.857 253.322 300.312 255.42 299.23 257.484C298.148 259.548 296.355 261.007 293.863 261.861C295.949 262.694 297.427 263.877 298.297 265.414C299.166 266.95 299.599 269.293 299.599 272.443V275.461C299.599 277.515 299.683 278.907 299.849 279.64C300.099 280.799 300.677 281.653 301.594 282.201V283.331H291.164C290.876 282.336 290.673 281.532 290.552 280.92C290.308 279.66 290.173 278.369 290.153 277.048L290.092 272.87C290.054 270.002 289.554 268.093 288.597 267.138C287.64 266.183 285.844 265.706 283.213 265.706H273.983V283.331H264.75V238.384H286.378C289.469 238.444 291.847 238.831 293.511 239.543V239.54ZM273.983 246.186V258.26H284.153C286.172 258.26 287.687 258.015 288.698 257.527C290.484 256.674 291.377 254.986 291.377 252.465C291.377 249.742 290.511 247.913 288.783 246.976C287.812 246.448 286.355 246.182 284.413 246.182H273.983V246.186Z" fill="#EEF9FF"/>
</g>
<defs>
<clipPath id="clip0_276_448">
<rect width="410" height="410" fill="white"/>
</clipPath>
</defs>
</svg>
