<svg width="35" height="35" viewBox="0 0 35 35" fill="none" xmlns="http://www.w3.org/2000/svg">
<path fill-rule="evenodd" clip-rule="evenodd" d="M10.2719 0.214775C7.42308 0.343312 4.95391 1.0398 2.9601 3.02519C0.959338 5.02101 0.271497 7.49996 0.142639 10.3191C0.0625385 12.0787 -0.405848 25.3719 0.952375 28.8581C1.8683 31.21 3.67226 33.0183 6.04566 33.9372C7.15314 34.368 8.41737 34.6596 10.2719 34.7447C25.7782 35.4464 31.5263 35.0644 33.9502 28.8581C34.3803 27.7534 34.6763 26.4902 34.7582 24.6403C35.4669 9.09421 34.6433 5.72449 31.9407 3.02519C29.7972 0.886943 27.2758 -0.568609 10.2719 0.214775ZM10.4146 31.6181C8.71684 31.5417 7.7957 31.2588 7.18101 31.0208C5.63473 30.4198 4.47328 29.2632 3.87601 27.7259C2.84167 25.077 3.18472 12.4959 3.27701 10.4601C3.36756 8.46602 3.77154 6.64357 5.17852 5.23661C6.91983 3.4996 9.16958 2.64831 24.4879 3.33964C26.4869 3.42996 28.3136 3.83311 29.724 5.23661C31.4654 6.9736 32.329 9.24067 31.6255 24.5002C31.5489 26.1938 31.2651 27.1127 31.0266 27.7259C29.4507 31.7644 25.8252 32.3251 10.4146 31.6181ZM24.6568 8.20681C24.6568 9.35672 25.5919 10.2918 26.7464 10.2918C27.9009 10.2918 28.8377 9.35672 28.8377 8.20681C28.8377 7.05693 27.9009 6.12271 26.7464 6.12271C25.5919 6.12271 24.6568 7.05693 24.6568 8.20681ZM8.50964 17.4789C8.50964 22.405 12.5129 26.3989 17.4513 26.3989C22.3896 26.3989 26.3929 22.405 26.3929 17.4789C26.3929 12.5527 22.3896 8.56143 17.4513 8.56143C12.5129 8.56143 8.50964 12.5527 8.50964 17.4789ZM11.6475 17.4789C11.6475 14.2828 14.2455 11.6897 17.4513 11.6897C20.657 11.6897 23.2551 14.2828 23.2551 17.4789C23.2551 20.6767 20.657 23.2706 17.4513 23.2706C14.2455 23.2706 11.6475 20.6767 11.6475 17.4789Z" fill="#EA2D2D"/>
</svg>
