<svg width="61" height="29" viewBox="0 0 61 29" fill="none" xmlns="http://www.w3.org/2000/svg">
<path d="M9.27566 7.70801C8.47714 8.37169 7.33734 8.70377 5.85524 8.70377H3.01552V13.5905H0.184326V0H6.04044C7.39054 0 8.4666 0.350592 9.26963 1.05127C10.0722 1.75196 10.4737 2.83674 10.4737 4.30612C10.4737 5.91054 10.0742 7.04434 9.27616 7.70851L9.27566 7.70801ZM7.10044 2.81223C6.73958 2.51116 6.23417 2.36062 5.58371 2.36062H3.01552V6.36216H5.58371C6.23417 6.36216 6.73958 6.19912 7.10044 5.87353C7.4613 5.54795 7.64198 5.03131 7.64198 4.32463C7.64198 3.61794 7.4613 3.11381 7.10044 2.81274V2.81223Z" fill="#0F334B"/>
<path d="M21.8966 2.40663H14.6793V5.29238H21.3043V7.6525H14.6793V11.1469H22.2293V13.59H11.8943V0H21.8966V2.40663Z" fill="#0F334B"/>
<path d="M32.2427 0.350091C32.745 0.565148 33.1707 0.881731 33.5195 1.29984C33.8081 1.64393 34.0369 2.02503 34.2051 2.44314C34.3732 2.86125 34.4575 3.33737 34.4575 3.87201C34.4575 4.51718 34.2939 5.15235 33.9672 5.77601C33.6404 6.40017 33.1004 6.84079 32.348 7.09885C32.9769 7.35092 33.4226 7.70901 33.6851 8.17313C33.9471 8.63726 34.0781 9.34544 34.0781 10.2982V11.2109C34.0781 11.8316 34.1032 12.2527 34.1534 12.4743C34.2286 12.8249 34.4038 13.0829 34.6799 13.249V13.59H31.534C31.4477 13.289 31.3859 13.0459 31.3488 12.8619C31.275 12.4808 31.2348 12.0907 31.2283 11.6911L31.2098 10.4277C31.1982 9.561 31.0481 8.98335 30.7591 8.69427C30.47 8.4052 29.9289 8.26066 29.1354 8.26066H26.3519V13.59H23.5669V0H30.0905C31.0225 0.0185048 31.7398 0.135036 32.2422 0.350592L32.2427 0.350091ZM26.3524 2.36012V6.01107H29.4195C30.0288 6.01107 30.4855 5.93705 30.7902 5.78951C31.3292 5.53145 31.5987 5.02131 31.5987 4.25911C31.5987 3.4354 31.3377 2.88225 30.8168 2.59968C30.5237 2.44014 30.0845 2.36012 29.4988 2.36012H26.3529H26.3524Z" fill="#0F334B"/>
<path d="M36.2402 0.0184937H45.965V2.40662H39.0714V5.53243H45.1132V7.89255H39.0714V13.5905H36.2402V0.0184937Z" fill="#0F334B"/>
<path d="M49.4677 13.5905H46.6365V0H49.4677V13.5905Z" fill="#0F334B"/>
<path d="M51.1848 0H54.0346V11.1469H60.8443V13.59H51.1848V0Z" fill="#0F334B"/>
<path d="M45.7051 16.4718H5.98209C2.67827 16.4718 0 19.1407 0 22.4329C0 25.7251 2.67827 28.3939 5.98209 28.3939H45.7051C49.0089 28.3939 51.6872 25.7251 51.6872 22.4329C51.6872 19.1407 49.0089 16.4718 45.7051 16.4718Z" fill="#EA2D2D"/>
<path d="M6.9314 19.1005H8.33369V24.5855H11.6843V25.7878H6.9314V19.1005Z" fill="#EEF9FF"/>
<path d="M16.4102 19.1005H17.9967L20.3711 25.7878H18.8504L18.4077 24.4134H15.9364L15.4817 25.7878H14.0151L16.4107 19.1005H16.4102ZM16.3178 23.2606H18.0363L17.1886 20.6294L16.3173 23.2606H16.3178Z" fill="#EEF9FF"/>
<path d="M24.1 23.7232C24.1437 24.0288 24.2285 24.2569 24.3555 24.4084C24.5879 24.6835 24.9864 24.821 25.55 24.821C25.8878 24.821 26.1623 24.7845 26.3726 24.712C26.7726 24.5729 26.9724 24.3144 26.9724 23.9363C26.9724 23.7157 26.8745 23.5447 26.6787 23.4236C26.483 23.3056 26.1723 23.2016 25.7472 23.1106L25.021 22.9515C24.3068 22.7945 23.8164 22.6234 23.5494 22.4389C23.0972 22.1303 22.8709 21.6482 22.8709 20.992C22.8709 20.3933 23.0922 19.8957 23.5344 19.4996C23.9765 19.1035 24.6265 18.9055 25.4842 18.9055C26.1999 18.9055 26.8108 19.092 27.3162 19.4656C27.8216 19.8392 28.0866 20.3813 28.1112 21.092H26.7636C26.7385 20.6899 26.5583 20.4038 26.222 20.2348C25.9977 20.1228 25.7196 20.0668 25.3869 20.0668C25.0165 20.0668 24.7209 20.1393 24.5 20.2843C24.2792 20.4294 24.1688 20.6319 24.1688 20.8925C24.1688 21.1315 24.2777 21.3096 24.4955 21.4276C24.6355 21.5061 24.9327 21.5987 25.3874 21.7042L26.5648 21.9808C27.0808 22.1018 27.4677 22.2638 27.7252 22.4664C28.1252 22.781 28.3255 23.2361 28.3255 23.8317C28.3255 24.4274 28.0886 24.95 27.6143 25.3536C27.1405 25.7572 26.471 25.9593 25.6057 25.9593C24.7404 25.9593 24.0277 25.7602 23.5213 25.3626C23.0149 24.965 22.762 24.4184 22.762 23.7227H24.1005L24.1 23.7232Z" fill="#EEF9FF"/>
<path d="M36.1357 20.2848H32.5848V21.7047H35.8446V22.866H32.5848V24.5855H36.2998V25.7878H31.2146V19.1005H36.1362V20.2848H36.1357Z" fill="#EEF9FF"/>
<path d="M43.5572 19.2731C43.8046 19.3791 44.0139 19.5346 44.1856 19.7402C44.3276 19.9097 44.44 20.0968 44.5228 20.3028C44.6056 20.5084 44.6473 20.7429 44.6473 21.006C44.6473 21.3236 44.5665 21.6357 44.4059 21.9428C44.2453 22.2498 43.9793 22.4669 43.6094 22.5939C43.919 22.718 44.1384 22.894 44.2674 23.1226C44.3964 23.3511 44.4606 23.6997 44.4606 24.1683V24.6175C44.4606 24.923 44.4731 25.1301 44.4977 25.2391C44.5349 25.4117 44.6207 25.5387 44.7567 25.6202V25.7883H43.2089C43.1662 25.6402 43.1361 25.5207 43.118 25.4297C43.0819 25.2421 43.0618 25.0501 43.0588 24.8535L43.0498 24.2319C43.0442 23.8052 42.97 23.5212 42.8279 23.3791C42.6859 23.2371 42.4194 23.1661 42.0289 23.1661H40.6592V25.7883H39.2891V19.101H42.4987C42.9574 19.11 43.3102 19.1675 43.5572 19.2736V19.2731ZM40.6592 20.2618V22.0583H42.1684C42.4681 22.0583 42.6929 22.0218 42.843 21.9493C43.108 21.8222 43.2405 21.5712 43.2405 21.1961C43.2405 20.791 43.112 20.5189 42.8555 20.3793C42.7115 20.3008 42.4952 20.2613 42.2071 20.2613H40.6592V20.2618Z" fill="#EEF9FF"/>
</svg>
