<svg width="399" height="186" viewBox="0 0 399 186" fill="none" xmlns="http://www.w3.org/2000/svg">
<path d="M60.797 50.3926C55.5631 54.7315 48.0923 56.9025 38.378 56.9025H19.7652V88.8508H1.20831V3.05176e-05H39.5919C48.441 3.05176e-05 55.494 2.29209 60.7575 6.87293C66.0176 11.4538 68.6493 18.5457 68.6493 28.1521C68.6493 38.6413 66.0308 46.0537 60.8002 50.3959L60.797 50.3926ZM46.5396 18.3855C44.1744 16.4172 40.8617 15.433 36.5983 15.433H19.7652V41.5938H36.5983C40.8617 41.5938 44.1744 40.5279 46.5396 38.3993C48.9049 36.2708 50.0891 32.8932 50.0891 28.2731C50.0891 23.653 48.9049 20.3572 46.5396 18.3888V18.3855Z" fill="#0F334B"/>
<path d="M143.518 15.7338H96.2132V34.6H139.637V50.0297H96.2132V72.875H145.699V88.8475H77.959V6.10352e-05H143.518V15.7338Z" fill="#0F334B"/>
<path d="M211.331 2.28885C214.624 3.69482 217.414 5.76454 219.7 8.498C221.592 10.7476 223.092 13.2391 224.194 15.9725C225.296 18.706 225.848 21.8187 225.848 25.3141C225.848 29.532 224.776 33.6845 222.634 37.7618C220.493 41.8424 216.953 44.723 212.022 46.4101C216.144 48.0581 219.065 50.3992 220.786 53.4334C222.503 56.4677 223.361 61.0976 223.361 67.3264V73.2936C223.361 77.3513 223.526 80.1043 223.855 81.5528C224.348 83.8449 225.496 85.532 227.306 86.6176V88.8475H206.686C206.12 86.8792 205.716 85.2901 205.472 84.0868C204.989 81.5953 204.726 79.045 204.683 76.4325L204.561 68.1732C204.485 62.5068 203.502 58.7303 201.607 56.8405C199.712 54.9506 196.166 54.0056 190.965 54.0056H172.721V88.8475H154.466V6.10352e-05H197.225C203.334 0.12104 208.035 0.882882 211.328 2.29212L211.331 2.28885ZM172.724 15.4298V39.2985H192.827C196.82 39.2985 199.814 38.8146 201.811 37.8501C205.344 36.1629 207.111 32.8278 207.111 27.8448C207.111 22.4596 205.4 18.8433 201.985 16.9959C200.064 15.9529 197.186 15.4298 193.347 15.4298H172.727H172.724Z" fill="#0F334B"/>
<path d="M237.533 0.121063H301.273V15.7339H256.09V36.1695H295.691V51.5991H256.09V88.8508H237.533V0.121063Z" fill="#0F334B"/>
<path d="M324.232 88.8508H305.675V6.10352e-05H324.232V88.8508Z" fill="#0F334B"/>
<path d="M335.486 6.10352e-05H354.164V72.875H398.798V88.8475H335.486V6.10352e-05Z" fill="#0F334B"/>
<path d="M299.572 107.687H39.2093C17.5546 107.687 0 125.136 0 146.659C0 168.182 17.5546 185.63 39.2093 185.63H299.572C321.226 185.63 338.781 168.182 338.781 146.659C338.781 125.136 321.226 107.687 299.572 107.687Z" fill="#EA2D2D"/>
<path d="M45.43 124.873H54.6212V160.732H76.5829V168.592H45.43V124.873Z" fill="#EAF9FF"/>
<path d="M107.558 124.873H117.957L133.52 168.592H123.552L120.651 159.607H104.453L101.472 168.592H91.86L107.562 124.873H107.558ZM106.953 152.071H118.217L112.66 134.869L106.95 152.071H106.953Z" fill="#EAF9FF"/>
<path d="M157.962 155.095C158.248 157.093 158.804 158.584 159.637 159.574C161.16 161.373 163.772 162.272 167.466 162.272C169.68 162.272 171.479 162.033 172.858 161.559C175.48 160.65 176.789 158.96 176.789 156.488C176.789 155.046 176.147 153.928 174.864 153.136C173.581 152.365 171.545 151.685 168.759 151.09L163.999 150.05C159.317 149.023 156.104 147.905 154.353 146.698C151.389 144.681 149.906 141.529 149.906 137.239C149.906 133.325 151.357 130.072 154.255 127.482C157.153 124.893 161.413 123.598 167.035 123.598C171.726 123.598 175.73 124.818 179.042 127.26C182.355 129.703 184.092 133.247 184.253 137.893H175.42C175.256 135.264 174.075 133.394 171.871 132.289C170.4 131.556 168.578 131.19 166.397 131.19C163.969 131.19 162.031 131.664 160.584 132.613C159.137 133.561 158.413 134.885 158.413 136.589C158.413 138.151 159.127 139.315 160.554 140.087C161.472 140.6 163.42 141.205 166.4 141.895L174.118 143.703C177.499 144.495 180.036 145.554 181.723 146.878C184.345 148.935 185.658 151.91 185.658 155.804C185.658 159.699 184.105 163.116 180.996 165.754C177.891 168.393 173.502 169.714 167.831 169.714C162.16 169.714 157.488 168.412 154.169 165.813C150.85 163.214 149.192 159.64 149.192 155.092H157.965L157.962 155.095Z" fill="#EAF9FF"/>
<path d="M236.848 132.616H213.574V141.899H234.94V149.491H213.574V160.732H237.924V168.592H204.593V124.873H236.851V132.616H236.848Z" fill="#EAF9FF"/>
<path d="M285.492 126.001C287.114 126.694 288.485 127.711 289.611 129.055C290.541 130.163 291.278 131.386 291.821 132.733C292.364 134.077 292.637 135.611 292.637 137.331C292.637 139.407 292.107 141.447 291.055 143.455C290.002 145.462 288.258 146.881 285.834 147.712C287.864 148.523 289.301 149.674 290.147 151.168C290.992 152.662 291.413 154.941 291.413 158.005V160.941C291.413 162.939 291.495 164.293 291.657 165.005C291.9 166.133 292.463 166.964 293.354 167.497V168.595H283.209C282.929 167.628 282.732 166.846 282.613 166.251C282.377 165.025 282.245 163.769 282.225 162.484L282.166 158.42C282.13 155.631 281.643 153.774 280.712 152.845C279.781 151.917 278.034 151.452 275.475 151.452H266.497V168.595H257.517V124.876H278.554C281.561 124.935 283.873 125.311 285.492 126.004V126.001ZM266.497 132.465V144.21H276.389C278.353 144.21 279.827 143.971 280.811 143.497C282.548 142.667 283.416 141.025 283.416 138.573C283.416 135.925 282.574 134.146 280.893 133.234C279.949 132.72 278.531 132.462 276.643 132.462H266.497V132.465Z" fill="#EAF9FF"/>
</svg>
