<svg width="50" height="53" viewBox="0 0 50 53" fill="none" xmlns="http://www.w3.org/2000/svg">
<path d="M29.2307 7.54153V4.28102H32.0337C32.0677 4.28102 32.5218 4.07182 32.5898 4.02249C33.5491 3.33875 33.5508 0.316357 32.083 0H20.7707C20.4254 0.26363 19.9628 0.472834 19.8199 0.933762C19.6668 1.42701 19.6753 3.18568 19.956 3.61769C20.0563 3.77247 20.6822 4.27932 20.8234 4.27932H23.4223V7.53983C20.6244 7.85619 17.8299 8.77975 15.3688 10.137C14.8415 10.4279 14.0609 10.8616 13.605 11.2273C11.2511 13.1135 12.7223 16.6495 15.7158 16.2941C16.7023 16.1767 18.1463 15.0593 19.1192 14.6017C28.95 9.99074 40.6348 15.9828 42.6486 26.5791C44.8359 38.0835 34.971 48.1831 23.4019 46.234C16.2703 45.0315 10.6813 39.2503 9.66418 32.1017H11.7528C11.8549 32.1017 12.4247 31.8585 12.5505 31.7785C13.2581 31.3346 13.5149 30.3226 13.1475 29.5844C11.4654 26.9294 10.0877 23.9291 8.38005 21.3081C7.84428 20.4849 7.38165 19.9135 6.27271 20.1022C5.63489 20.2111 5.32874 20.672 4.99537 21.167C3.26562 23.7284 1.92705 26.8325 0.234717 29.4501C-0.847018 32.1765 2.05462 32.2599 3.95786 32.1017C4.39157 37.0256 6.6673 41.7574 10.069 45.3019C25.2218 61.0823 51.7311 47.8005 48.3583 26.1708C46.8616 16.5764 38.8489 8.80866 29.229 7.54323L29.2307 7.54153Z" fill="#D6E9F1"/>
<path d="M39.7095 27.2764C38.6329 20.6278 32.9027 15.8977 26.1725 15.9998V29.8582H39.9289C39.9102 28.9993 39.8456 28.1234 39.7095 27.2764Z" fill="#D6E9F1"/>
<path d="M48.8992 10.1387C47.6219 8.87668 46.1762 7.76433 44.9158 6.4785C44.5382 6.19276 44.0263 6.14513 43.5705 6.24038C43.1606 6.32542 41.8577 7.71331 41.6587 8.0994C41.1961 8.99744 41.5414 9.5145 42.169 10.1421C43.2014 11.1694 45.0332 12.9757 46.154 13.8006C46.6626 14.1765 47.1099 14.3126 47.7477 14.0864C48.0454 13.9809 49.4009 12.5386 49.5489 12.2188C49.9928 11.2681 49.5319 10.7646 48.8992 10.1387Z" fill="#D6E9F1"/>
</svg>
