<svg width="51" height="50" viewBox="0 0 51 50" fill="none" xmlns="http://www.w3.org/2000/svg">
<path d="M25.9041 0.00488564C26.0905 0.219862 26.405 0.232891 26.603 0.441354C26.6596 0.501612 26.9991 1.08791 26.9991 1.127V3.12856C37.9794 3.66763 47.2473 12.7781 47.8131 23.5383H49.855C49.895 23.5383 50.4941 23.8706 50.554 23.9259C50.767 24.1214 50.7803 24.4292 51 24.6116V25.3933C50.7803 25.5773 50.7687 25.8852 50.554 26.079C50.4924 26.1343 49.895 26.4666 49.855 26.4666H47.8131C47.2456 37.2317 37.9794 46.3291 26.9991 46.8763V48.8779C26.9991 48.917 26.6596 49.5033 26.603 49.5635C26.405 49.7736 26.0905 49.7867 25.9041 50H25.1069C23.6841 49.4267 24.0402 48.119 24.0119 46.8747C13.0299 46.321 3.76375 37.2366 3.19793 26.4649C1.97475 26.5219 -0.0522253 26.6783 0.00102861 24.9503C0.0526184 23.2891 2.00138 23.5009 3.19793 23.5351C3.75876 12.7651 13.0333 3.67903 24.0119 3.12531C24.0402 1.88105 23.6841 0.571643 25.1069 0H25.9041V0.00488564ZM24.0119 6.06006C14.6359 6.63659 6.75929 14.3448 6.18514 23.5399H15.2483C15.7176 19.2013 19.5802 15.4083 24.0119 14.9458V6.06006ZM44.8275 23.5399C44.2401 14.3464 36.3801 6.62845 27.0008 6.06006V14.9458C31.4308 15.405 35.2918 19.1883 35.7644 23.5399H44.8275ZM15.2483 26.4682H6.18514C6.76927 35.665 14.6326 43.3667 24.0119 43.9481V35.0624C19.5868 34.6031 15.7176 30.815 15.2483 26.4682ZM44.8275 26.4682H35.7644C35.2701 30.8133 31.4358 34.595 27.0008 35.0624V43.9481C36.3718 43.3764 44.2301 35.6552 44.8275 26.4682Z" fill="#EAF9FF"/>
</svg>
