<svg width="44" height="44" viewBox="0 0 44 44" fill="none" xmlns="http://www.w3.org/2000/svg">
<path d="M43.9986 44H38.0033V40.1799C38.0033 39.7711 37.1446 39.4598 36.7499 39.7965C36.6976 39.8418 36.4571 40.2493 36.4571 40.2761V43.9986H33.7494V41.5806C33.4311 41.4292 32.7832 41.8169 32.7832 42.1126V43.9986H30.1237L29.9779 43.8529V40.0809C29.9779 39.7187 29.1956 39.5334 28.859 39.7357C28.7939 39.7753 28.5279 40.1333 28.5279 40.1771V43.8514L28.3822 43.9972H25.8684L25.7227 43.8514V42.0136C25.7227 41.6429 24.9842 41.4802 24.6603 41.6287C24.6107 41.6514 24.2726 41.9867 24.2726 42.0136V43.8514L24.1269 43.9972H21.6131L21.4674 43.8514V40.0795C21.4674 39.9224 20.9666 39.6338 20.7417 39.6338C20.5167 39.6338 20.0159 39.9224 20.0159 40.0795V43.8514L19.8702 43.9972H17.3564L17.2107 43.8514V42.0136C17.2107 41.9867 16.8698 41.65 16.8231 41.6287C16.5062 41.4915 15.7607 41.6613 15.7607 42.0136V43.8514L15.615 43.9972H13.1011L12.9554 43.8514V40.1771C12.9554 40.1163 12.6555 39.7357 12.5678 39.6961C11.9991 39.4357 11.4092 39.8842 11.4092 40.4686V43.9986H8.70154V42.1126C8.70154 41.6754 7.85275 41.384 7.44816 41.7292C7.39581 41.7745 7.15532 42.1819 7.15532 42.2102V43.9986H0.145709L0 43.8529V41.483H3.81957C4.2284 41.483 4.53963 40.6242 4.20294 40.2295C4.15767 40.1771 3.75025 39.9366 3.72337 39.9366H0.00141388V37.4224H1.98335C2.36389 37.4224 2.51384 36.7971 2.36813 36.4575C2.34833 36.4108 2.01164 36.0698 1.98335 36.0698H0.145709L0 35.9241V33.6038L0.145709 33.458H3.91718C4.26801 33.458 4.43777 32.7124 4.30196 32.3955C4.28074 32.3474 3.94547 32.0078 3.91718 32.0078H0.145709L0 31.8621V29.4923H1.69193C2.68926 29.4923 2.56901 28.0421 1.78812 28.0421H0V25.5279H3.81957C4.2284 25.5279 4.53963 24.6691 4.20294 24.2743C4.15767 24.222 3.75025 23.9815 3.72337 23.9815H0.00141388V21.7574H1.88715C2.52657 21.7574 2.64399 20.2095 1.79095 20.2095H0.00282883V17.6954H3.8224C4.46182 17.6954 4.57924 16.1475 3.7262 16.1475H0.00424379V13.6334H1.88998C1.95081 13.6334 2.33135 13.3334 2.37096 13.2457C2.5676 12.8142 2.27618 12.0869 1.79237 12.0869H0.00424379V9.57278H3.82381C4.23265 9.57278 4.54387 8.71398 4.20718 8.31924C4.16191 8.26689 3.75449 8.02637 3.72761 8.02637H0.00565767V5.5122H1.89139C2.33418 5.5122 2.66096 4.5869 2.22667 4.20914C2.17857 4.16669 1.72729 3.96437 1.69759 3.96437H0.00565767V0L44 44H43.9986ZM10.1303 22.1592C9.88419 22.2073 9.46404 22.5921 9.47394 22.8652L9.52204 34.0452C9.6536 34.3692 9.94502 34.5446 10.2959 34.5277C13.7561 34.2829 17.6266 34.8361 21.0373 34.5277C21.9003 34.4499 22.07 33.666 21.5183 33.0704L10.931 22.4818C10.7118 22.3077 10.4218 22.104 10.1303 22.1606V22.1592Z" fill="#D6E9F1"/>
</svg>
