<svg width="35" height="35" viewBox="0 0 35 35" fill="none" xmlns="http://www.w3.org/2000/svg">
<path d="M29.9017 5.0817C26.7475 1.94211 22.3902 0 17.5768 0C7.95119 0 0.146571 7.76727 0.146571 17.3494C0.146571 20.538 1.01075 23.5247 2.5175 26.0924L2.47295 26.0107L0 35L9.23867 32.5875C11.6436 33.9169 14.5129 34.6989 17.5663 34.6989H17.5733C27.1989 34.6954 35 26.9269 35 17.3459C35 12.5572 33.0512 8.22246 29.9005 5.08287L29.9017 5.0817ZM17.5733 31.7682H17.5674C14.8482 31.7682 12.3026 31.0212 10.1298 29.7222L10.1955 29.7584L9.66666 29.4468L4.1849 30.8789L5.64709 25.5579L5.30236 25.0128C3.91286 22.8396 3.08737 20.1914 3.08737 17.3506C3.08737 9.38842 9.57285 2.93301 17.5721 2.93301C25.5714 2.93301 32.0569 9.38842 32.0569 17.3506C32.0569 25.3128 25.5737 31.7682 17.5733 31.7682ZM25.5186 20.9711C25.0836 20.754 22.9425 19.707 22.5438 19.5612C22.144 19.4164 21.8532 19.3452 21.5624 19.7794C21.2739 20.2124 20.439 21.1881 20.1846 21.4776C19.9313 21.7682 19.6757 21.8032 19.2407 21.5873C17.8922 21.0434 16.7337 20.3186 15.7265 19.4258L15.7382 19.4363C14.8013 18.5726 13.9981 17.584 13.3497 16.4939L13.3169 16.4332C13.0636 16.0002 13.2899 15.7656 13.5068 15.5497C13.7026 15.356 13.943 15.0432 14.1599 14.7911C14.3311 14.5822 14.4777 14.3429 14.5891 14.0861L14.5961 14.0663C14.6466 13.9648 14.6759 13.8469 14.6759 13.7208C14.6759 13.5679 14.6325 13.4255 14.5574 13.3042L14.5598 13.3077C14.4496 13.0906 13.5795 10.9571 13.2172 10.0887C12.8631 9.2437 12.5031 9.35924 12.2369 9.34524C11.9837 9.33357 11.6929 9.33123 11.4021 9.33123C10.9389 9.3429 10.5273 9.55065 10.2436 9.87162L10.2424 9.87395C9.30199 10.7621 8.71805 12.0145 8.71805 13.4022C8.71805 13.4325 8.71805 13.4641 8.71922 13.4944V13.4897C8.87283 15.2019 9.51774 16.739 10.5097 17.9914L10.4957 17.9739C12.3765 20.7505 14.8834 22.9715 17.8254 24.4678L17.9356 24.518C18.5782 24.8074 19.4013 25.1167 20.2432 25.3817L20.4179 25.4295C20.9362 25.5929 21.533 25.6874 22.1522 25.6874C22.5075 25.6874 22.8569 25.6559 23.1946 25.5964L23.1582 25.6011C24.4117 25.3408 25.4518 24.588 26.0861 23.5598L26.0967 23.5399C26.2902 23.1127 26.4027 22.6144 26.4027 22.0903C26.4027 21.8744 26.384 21.6632 26.3476 21.4577L26.3511 21.4799C26.2433 21.299 25.9525 21.1916 25.5163 20.9734L25.5186 20.9711Z" fill="#EA2D2D"/>
</svg>
